<?xml version="1.0" encoding="UTF-8" standalone="no"?>
<!DOCTYPE svg PUBLIC "-//W3C//DTD SVG 1.1//EN"
 "http://www.w3.org/Graphics/SVG/1.1/DTD/svg11.dtd">
<!-- Generated by graphviz version 2.47.0 (20210316.0004)
 -->
<!-- Title: dependencies Pages: 1 -->
<svg width="3246pt" height="284pt"
 viewBox="0.00 0.00 3246.00 284.00" xmlns="http://www.w3.org/2000/svg" xmlns:xlink="http://www.w3.org/1999/xlink">
<g id="graph0" class="graph" transform="scale(1 1) rotate(0) translate(4 280)">
<title>dependencies</title>
<polygon fill="white" stroke="transparent" points="-4,4 -4,-280 3242,-280 3242,4 -4,4"/>
<text text-anchor="start" x="1598.01" y="-42.4" font-family="Times-12" font-weight="bold" font-size="14.00">Legend</text>
<polygon fill="#ffffb3" stroke="transparent" points="1385,-10 1385,-30 1405,-30 1405,-10 1385,-10"/>
<text text-anchor="start" x="1408.63" y="-15.4" font-family="Times-12" font-size="14.00"> &#160;Declarations</text>
<polygon fill="#8dd3c7" stroke="transparent" points="1498,-10 1498,-30 1518,-30 1518,-10 1498,-10"/>
<text text-anchor="start" x="1521.73" y="-15.4" font-family="Times-12" font-size="14.00"> &#160;Module</text>
<polygon fill="#80b1d3" stroke="transparent" points="1584,-10 1584,-30 1604,-30 1604,-10 1584,-10"/>
<text text-anchor="start" x="1607.78" y="-15.4" font-family="Times-12" font-size="14.00"> &#160;Bootstrap</text>
<polygon fill="#fdb462" stroke="transparent" points="1681,-10 1681,-30 1701,-30 1701,-10 1681,-10"/>
<text text-anchor="start" x="1704.67" y="-15.4" font-family="Times-12" font-size="14.00"> &#160;Providers</text>
<polygon fill="#fb8072" stroke="transparent" points="1777,-10 1777,-30 1797,-30 1797,-10 1777,-10"/>
<text text-anchor="start" x="1800.73" y="-15.4" font-family="Times-12" font-size="14.00"> &#160;Exports</text>
<g id="clust1" class="cluster">
<title>cluster_ConfigurationModule</title>
<polygon fill="none" stroke="black" stroke-dasharray="1,5" points="8,-70 8,-268 3230,-268 3230,-70 8,-70"/>
</g>
<g id="clust4" class="cluster">
<title>cluster_ConfigurationModule_exports</title>
<polygon fill="none" stroke="black" points="1511,-208 1511,-260 2456,-260 2456,-208 1511,-208"/>
</g>
<g id="clust3" class="cluster">
<title>cluster_ConfigurationModule_imports</title>
<polygon fill="none" stroke="black" points="2204,-78 2204,-130 3222,-130 3222,-78 2204,-78"/>
</g>
<g id="clust6" class="cluster">
<title>cluster_ConfigurationModule_providers</title>
<polygon fill="none" stroke="black" points="16,-78 16,-130 2196,-130 2196,-78 16,-78"/>
</g>
<!-- AuditLogModule -->
<g id="node1" class="node">
<title>AuditLogModule</title>
<polygon fill="#8dd3c7" stroke="black" points="3213.99,-122 3210.99,-126 3189.99,-126 3186.99,-122 3100.01,-122 3100.01,-86 3213.99,-86 3213.99,-122"/>
<text text-anchor="middle" x="3157" y="-99.8" font-family="Times,serif" font-size="14.00">AuditLogModule</text>
</g>
<!-- ConfigurationModule -->
<g id="node9" class="node">
<title>ConfigurationModule</title>
<polygon fill="#8dd3c7" stroke="black" points="2032.09,-187 2029.09,-191 2008.09,-191 2005.09,-187 1893.91,-187 1893.91,-151 2032.09,-151 2032.09,-187"/>
<text text-anchor="middle" x="1963" y="-164.8" font-family="Times,serif" font-size="14.00">ConfigurationModule</text>
</g>
<!-- AuditLogModule&#45;&gt;ConfigurationModule -->
<g id="edge1" class="edge">
<title>AuditLogModule&#45;&gt;ConfigurationModule</title>
<path fill="none" stroke="black" d="M3157,-122.29C3157,-144.21 3157,-178 3157,-178 3157,-178 2042.36,-178 2042.36,-178"/>
<polygon fill="black" stroke="black" points="2042.36,-174.5 2032.36,-178 2042.36,-181.5 2042.36,-174.5"/>
</g>
<!-- CryptoModule -->
<g id="node2" class="node">
<title>CryptoModule</title>
<polygon fill="#8dd3c7" stroke="black" points="3082.44,-122 3079.44,-126 3058.44,-126 3055.44,-122 2983.56,-122 2983.56,-86 3082.44,-86 3082.44,-122"/>
<text text-anchor="middle" x="3033" y="-99.8" font-family="Times,serif" font-size="14.00">CryptoModule</text>
</g>
<!-- CryptoModule&#45;&gt;ConfigurationModule -->
<g id="edge2" class="edge">
<title>CryptoModule&#45;&gt;ConfigurationModule</title>
<path fill="none" stroke="black" d="M3033,-122.03C3033,-142.77 3033,-174 3033,-174 3033,-174 2042.38,-174 2042.38,-174"/>
<polygon fill="black" stroke="black" points="2042.38,-170.5 2032.38,-174 2042.38,-177.5 2042.38,-170.5"/>
</g>
<!-- PresentationsModule -->
<g id="node3" class="node">
<title>PresentationsModule</title>
<polygon fill="#8dd3c7" stroke="black" points="2966.2,-122 2963.2,-126 2942.2,-126 2939.2,-122 2831.8,-122 2831.8,-86 2966.2,-86 2966.2,-122"/>
<text text-anchor="middle" x="2899" y="-99.8" font-family="Times,serif" font-size="14.00">PresentationsModule</text>
</g>
<!-- PresentationsModule&#45;&gt;ConfigurationModule -->
<g id="edge3" class="edge">
<title>PresentationsModule&#45;&gt;ConfigurationModule</title>
<path fill="none" stroke="black" d="M2899,-122.31C2899,-142.15 2899,-171 2899,-171 2899,-171 2042.21,-171 2042.21,-171"/>
<polygon fill="black" stroke="black" points="2042.21,-167.5 2032.21,-171 2042.21,-174.5 2042.21,-167.5"/>
</g>
<!-- RegistrarModule -->
<g id="node4" class="node">
<title>RegistrarModule</title>
<polygon fill="#8dd3c7" stroke="black" points="2813.36,-122 2810.36,-126 2789.36,-126 2786.36,-122 2702.64,-122 2702.64,-86 2813.36,-86 2813.36,-122"/>
<text text-anchor="middle" x="2758" y="-99.8" font-family="Times,serif" font-size="14.00">RegistrarModule</text>
</g>
<!-- RegistrarModule&#45;&gt;ConfigurationModule -->
<g id="edge4" class="edge">
<title>RegistrarModule&#45;&gt;ConfigurationModule</title>
<path fill="none" stroke="black" d="M2758,-122.17C2758,-141.09 2758,-168 2758,-168 2758,-168 2042.16,-168 2042.16,-168"/>
<polygon fill="black" stroke="black" points="2042.16,-164.5 2032.16,-168 2042.16,-171.5 2042.16,-164.5"/>
</g>
<!-- SessionModule -->
<g id="node5" class="node">
<title>SessionModule</title>
<polygon fill="#8dd3c7" stroke="black" points="2684.33,-122 2681.33,-126 2660.33,-126 2657.33,-122 2581.67,-122 2581.67,-86 2684.33,-86 2684.33,-122"/>
<text text-anchor="middle" x="2633" y="-99.8" font-family="Times,serif" font-size="14.00">SessionModule</text>
</g>
<!-- SessionModule&#45;&gt;ConfigurationModule -->
<g id="edge5" class="edge">
<title>SessionModule&#45;&gt;ConfigurationModule</title>
<path fill="none" stroke="black" d="M2633,-122.3C2633,-140.27 2633,-165 2633,-165 2633,-165 2042.18,-165 2042.18,-165"/>
<polygon fill="black" stroke="black" points="2042.18,-161.5 2032.18,-165 2042.18,-168.5 2042.18,-161.5"/>
</g>
<!-- StatusListModule -->
<g id="node6" class="node">
<title>StatusListModule</title>
<polygon fill="#8dd3c7" stroke="black" points="2563.55,-122 2560.55,-126 2539.55,-126 2536.55,-122 2448.45,-122 2448.45,-86 2563.55,-86 2563.55,-122"/>
<text text-anchor="middle" x="2506" y="-99.8" font-family="Times,serif" font-size="14.00">StatusListModule</text>
</g>
<!-- StatusListModule&#45;&gt;ConfigurationModule -->
<g id="edge6" class="edge">
<title>StatusListModule&#45;&gt;ConfigurationModule</title>
<path fill="none" stroke="black" d="M2506,-122.04C2506,-138.73 2506,-161 2506,-161 2506,-161 2042.32,-161 2042.32,-161"/>
<polygon fill="black" stroke="black" points="2042.32,-157.5 2032.32,-161 2042.32,-164.5 2042.32,-157.5"/>
</g>
<!-- TrustListModule -->
<g id="node7" class="node">
<title>TrustListModule</title>
<polygon fill="#8dd3c7" stroke="black" points="2430.38,-122 2427.38,-126 2406.38,-126 2403.38,-122 2319.62,-122 2319.62,-86 2430.38,-86 2430.38,-122"/>
<text text-anchor="middle" x="2375" y="-99.8" font-family="Times,serif" font-size="14.00">TrustListModule</text>
</g>
<!-- TrustListModule&#45;&gt;ConfigurationModule -->
<g id="edge7" class="edge">
<title>TrustListModule&#45;&gt;ConfigurationModule</title>
<path fill="none" stroke="black" d="M2375,-122.28C2375,-137.95 2375,-158 2375,-158 2375,-158 2042.42,-158 2042.42,-158"/>
<polygon fill="black" stroke="black" points="2042.42,-154.5 2032.42,-158 2042.42,-161.5 2042.42,-154.5"/>
</g>
<!-- TrustModule -->
<g id="node8" class="node">
<title>TrustModule</title>
<polygon fill="#8dd3c7" stroke="black" points="2301.6,-122 2298.6,-126 2277.6,-126 2274.6,-122 2212.4,-122 2212.4,-86 2301.6,-86 2301.6,-122"/>
<text text-anchor="middle" x="2257" y="-99.8" font-family="Times,serif" font-size="14.00">TrustModule</text>
</g>
<!-- TrustModule&#45;&gt;ConfigurationModule -->
<g id="edge8" class="edge">
<title>TrustModule&#45;&gt;ConfigurationModule</title>
<path fill="none" stroke="black" d="M2241.39,-122.12C2241.39,-136.78 2241.39,-155 2241.39,-155 2241.39,-155 2042.17,-155 2042.17,-155"/>
<polygon fill="black" stroke="black" points="2042.17,-151.5 2032.17,-155 2042.17,-158.5 2042.17,-151.5"/>
</g>
<!-- AttributeProviderService  -->
<g id="node10" class="node">
<title>AttributeProviderService </title>
<polygon fill="#fb8072" stroke="black" points="2448.23,-252 2287.77,-252 2287.77,-216 2448.23,-216 2448.23,-252"/>
<text text-anchor="middle" x="2368" y="-229.8" font-family="Times,serif" font-size="14.00">AttributeProviderService </text>
</g>
<!-- ConfigurationModule&#45;&gt;AttributeProviderService  -->
<g id="edge9" class="edge">
<title>ConfigurationModule&#45;&gt;AttributeProviderService </title>
<path fill="none" stroke="black" stroke-dasharray="5,2" d="M2032.13,-181C2129.35,-181 2294.72,-181 2294.72,-181 2294.72,-181 2294.72,-205.76 2294.72,-205.76"/>
<polygon fill="black" stroke="black" points="2291.22,-205.76 2294.72,-215.76 2298.22,-205.76 2291.22,-205.76"/>
</g>
<!-- CredentialConfigService  -->
<g id="node11" class="node">
<title>CredentialConfigService </title>
<polygon fill="#fb8072" stroke="black" points="2270.18,-252 2111.82,-252 2111.82,-216 2270.18,-216 2270.18,-252"/>
<text text-anchor="middle" x="2191" y="-229.8" font-family="Times,serif" font-size="14.00">CredentialConfigService </text>
</g>
<!-- ConfigurationModule&#45;&gt;CredentialConfigService  -->
<g id="edge10" class="edge">
<title>ConfigurationModule&#45;&gt;CredentialConfigService </title>
<path fill="none" stroke="black" stroke-dasharray="5,2" d="M2032.06,-184C2085.29,-184 2149.89,-184 2149.89,-184 2149.89,-184 2149.89,-205.95 2149.89,-205.95"/>
<polygon fill="black" stroke="black" points="2146.39,-205.95 2149.89,-215.95 2153.39,-205.95 2146.39,-205.95"/>
</g>
<!-- CredentialsService  -->
<g id="node12" class="node">
<title>CredentialsService </title>
<polygon fill="#fb8072" stroke="black" points="2093.74,-252 1968.26,-252 1968.26,-216 2093.74,-216 2093.74,-252"/>
<text text-anchor="middle" x="2031" y="-229.8" font-family="Times,serif" font-size="14.00">CredentialsService </text>
</g>
<!-- ConfigurationModule&#45;&gt;CredentialsService  -->
<g id="edge11" class="edge">
<title>ConfigurationModule&#45;&gt;CredentialsService </title>
<path fill="none" stroke="black" stroke-dasharray="5,2" d="M2000.21,-187.11C2000.21,-187.11 2000.21,-205.99 2000.21,-205.99"/>
<polygon fill="black" stroke="black" points="1996.71,-205.99 2000.21,-215.99 2003.71,-205.99 1996.71,-205.99"/>
</g>
<!-- IssuanceService  -->
<g id="node13" class="node">
<title>IssuanceService </title>
<polygon fill="#fb8072" stroke="black" points="1950.67,-252 1841.33,-252 1841.33,-216 1950.67,-216 1950.67,-252"/>
<text text-anchor="middle" x="1896" y="-229.8" font-family="Times,serif" font-size="14.00">IssuanceService </text>
</g>
<!-- ConfigurationModule&#45;&gt;IssuanceService  -->
<g id="edge12" class="edge">
<title>ConfigurationModule&#45;&gt;IssuanceService </title>
<path fill="none" stroke="black" stroke-dasharray="5,2" d="M1922.39,-187.11C1922.39,-187.11 1922.39,-205.99 1922.39,-205.99"/>
<polygon fill="black" stroke="black" points="1918.89,-205.99 1922.39,-215.99 1925.89,-205.99 1918.89,-205.99"/>
</g>
<!-- StatusListModule  -->
<g id="node14" class="node">
<title>StatusListModule </title>
<polygon fill="#fb8072" stroke="black" points="1823.55,-252 1704.45,-252 1704.45,-216 1823.55,-216 1823.55,-252"/>
<text text-anchor="middle" x="1764" y="-229.8" font-family="Times,serif" font-size="14.00">StatusListModule </text>
</g>
<!-- ConfigurationModule&#45;&gt;StatusListModule  -->
<g id="edge13" class="edge">
<title>ConfigurationModule&#45;&gt;StatusListModule </title>
<path fill="none" stroke="black" stroke-dasharray="5,2" d="M1893.7,-184C1842.53,-184 1781.74,-184 1781.74,-184 1781.74,-184 1781.74,-205.95 1781.74,-205.95"/>
<polygon fill="black" stroke="black" points="1778.24,-205.95 1781.74,-215.95 1785.24,-205.95 1778.24,-205.95"/>
</g>
<!-- WebhookEndpointService  -->
<g id="node15" class="node">
<title>WebhookEndpointService </title>
<polygon fill="#fb8072" stroke="black" points="1686.74,-252 1519.26,-252 1519.26,-216 1686.74,-216 1686.74,-252"/>
<text text-anchor="middle" x="1603" y="-229.8" font-family="Times,serif" font-size="14.00">WebhookEndpointService </text>
</g>
<!-- ConfigurationModule&#45;&gt;WebhookEndpointService  -->
<g id="edge14" class="edge">
<title>ConfigurationModule&#45;&gt;WebhookEndpointService </title>
<path fill="none" stroke="black" stroke-dasharray="5,2" d="M1893.65,-181C1793.52,-181 1620.32,-181 1620.32,-181 1620.32,-181 1620.32,-205.76 1620.32,-205.76"/>
<polygon fill="black" stroke="black" points="1616.82,-205.76 1620.32,-215.76 1623.82,-205.76 1616.82,-205.76"/>
</g>
<!-- AttributeProviderService -->
<g id="node16" class="node">
<title>AttributeProviderService</title>
<ellipse fill="#fdb462" stroke="black" cx="2080" cy="-104" rx="108.22" ry="18"/>
<text text-anchor="middle" x="2080" y="-99.8" font-family="Times,serif" font-size="14.00">AttributeProviderService</text>
</g>
<!-- AttributeProviderService&#45;&gt;ConfigurationModule -->
<g id="edge15" class="edge">
<title>AttributeProviderService&#45;&gt;ConfigurationModule</title>
<path fill="none" stroke="black" d="M2001.97,-116.53C2001.97,-116.53 2001.97,-140.85 2001.97,-140.85"/>
<polygon fill="black" stroke="black" points="1998.47,-140.85 2001.97,-150.85 2005.47,-140.85 1998.47,-140.85"/>
</g>
<!-- CredentialConfigService -->
<g id="node17" class="node">
<title>CredentialConfigService</title>
<ellipse fill="#fdb462" stroke="black" cx="1847" cy="-104" rx="107.08" ry="18"/>
<text text-anchor="middle" x="1847" y="-99.8" font-family="Times,serif" font-size="14.00">CredentialConfigService</text>
</g>
<!-- CredentialConfigService&#45;&gt;ConfigurationModule -->
<g id="edge16" class="edge">
<title>CredentialConfigService&#45;&gt;ConfigurationModule</title>
<path fill="none" stroke="black" d="M1924,-116.53C1924,-116.53 1924,-140.85 1924,-140.85"/>
<polygon fill="black" stroke="black" points="1920.5,-140.85 1924,-150.85 1927.5,-140.85 1920.5,-140.85"/>
</g>
<!-- CredentialsService -->
<g id="node18" class="node">
<title>CredentialsService</title>
<ellipse fill="#fdb462" stroke="black" cx="1638" cy="-104" rx="83.94" ry="18"/>
<text text-anchor="middle" x="1638" y="-99.8" font-family="Times,serif" font-size="14.00">CredentialsService</text>
</g>
<!-- CredentialsService&#45;&gt;ConfigurationModule -->
<g id="edge17" class="edge">
<title>CredentialsService&#45;&gt;ConfigurationModule</title>
<path fill="none" stroke="black" d="M1713.22,-112.42C1713.22,-126.91 1713.22,-155 1713.22,-155 1713.22,-155 1883.75,-155 1883.75,-155"/>
<polygon fill="black" stroke="black" points="1883.75,-158.5 1893.75,-155 1883.75,-151.5 1883.75,-158.5"/>
</g>
<!-- IssuanceService -->
<g id="node19" class="node">
<title>IssuanceService</title>
<ellipse fill="#fdb462" stroke="black" cx="1463" cy="-104" rx="73.47" ry="18"/>
<text text-anchor="middle" x="1463" y="-99.8" font-family="Times,serif" font-size="14.00">IssuanceService</text>
</g>
<!-- IssuanceService&#45;&gt;ConfigurationModule -->
<g id="edge18" class="edge">
<title>IssuanceService&#45;&gt;ConfigurationModule</title>
<path fill="none" stroke="black" d="M1527.81,-112.44C1527.81,-127.62 1527.81,-158 1527.81,-158 1527.81,-158 1883.56,-158 1883.56,-158"/>
<polygon fill="black" stroke="black" points="1883.56,-161.5 1893.56,-158 1883.56,-154.5 1883.56,-161.5"/>
</g>
<!-- MdocIssuerService -->
<g id="node20" class="node">
<title>MdocIssuerService</title>
<ellipse fill="#fdb462" stroke="black" cx="1286" cy="-104" rx="85.65" ry="18"/>
<text text-anchor="middle" x="1286" y="-99.8" font-family="Times,serif" font-size="14.00">MdocIssuerService</text>
</g>
<!-- MdocIssuerService&#45;&gt;ConfigurationModule -->
<g id="edge19" class="edge">
<title>MdocIssuerService&#45;&gt;ConfigurationModule</title>
<path fill="none" stroke="black" d="M1286,-122.04C1286,-138.73 1286,-161 1286,-161 1286,-161 1883.73,-161 1883.73,-161"/>
<polygon fill="black" stroke="black" points="1883.73,-164.5 1893.73,-161 1883.73,-157.5 1883.73,-164.5"/>
</g>
<!-- SchemaMetaAdapterService -->
<g id="node21" class="node">
<title>SchemaMetaAdapterService</title>
<ellipse fill="#fdb462" stroke="black" cx="1061" cy="-104" rx="121.5" ry="18"/>
<text text-anchor="middle" x="1061" y="-99.8" font-family="Times,serif" font-size="14.00">SchemaMetaAdapterService</text>
</g>
<!-- SchemaMetaAdapterService&#45;&gt;ConfigurationModule -->
<g id="edge20" class="edge">
<title>SchemaMetaAdapterService&#45;&gt;ConfigurationModule</title>
<path fill="none" stroke="black" d="M1061,-122.3C1061,-140.27 1061,-165 1061,-165 1061,-165 1883.72,-165 1883.72,-165"/>
<polygon fill="black" stroke="black" points="1883.72,-168.5 1893.72,-165 1883.72,-161.5 1883.72,-168.5"/>
</g>
<!-- SchemaMetadataSigningService -->
<g id="node22" class="node">
<title>SchemaMetadataSigningService</title>
<ellipse fill="#fdb462" stroke="black" cx="785" cy="-104" rx="136.57" ry="18"/>
<text text-anchor="middle" x="785" y="-99.8" font-family="Times,serif" font-size="14.00">SchemaMetadataSigningService</text>
</g>
<!-- SchemaMetadataSigningService&#45;&gt;ConfigurationModule -->
<g id="edge21" class="edge">
<title>SchemaMetadataSigningService&#45;&gt;ConfigurationModule</title>
<path fill="none" stroke="black" d="M785,-122.17C785,-141.09 785,-168 785,-168 785,-168 1883.71,-168 1883.71,-168"/>
<polygon fill="black" stroke="black" points="1883.71,-171.5 1893.71,-168 1883.71,-164.5 1883.71,-171.5"/>
</g>
<!-- SdjwtvcIssuerService -->
<g id="node23" class="node">
<title>SdjwtvcIssuerService</title>
<ellipse fill="#fdb462" stroke="black" cx="536" cy="-104" rx="94.9" ry="18"/>
<text text-anchor="middle" x="536" y="-99.8" font-family="Times,serif" font-size="14.00">SdjwtvcIssuerService</text>
</g>
<!-- SdjwtvcIssuerService&#45;&gt;ConfigurationModule -->
<g id="edge22" class="edge">
<title>SdjwtvcIssuerService&#45;&gt;ConfigurationModule</title>
<path fill="none" stroke="black" d="M536,-122.31C536,-142.15 536,-171 536,-171 536,-171 1883.69,-171 1883.69,-171"/>
<polygon fill="black" stroke="black" points="1883.69,-174.5 1893.69,-171 1883.69,-167.5 1883.69,-174.5"/>
</g>
<!-- WebhookEndpointService -->
<g id="node24" class="node">
<title>WebhookEndpointService</title>
<ellipse fill="#fdb462" stroke="black" cx="310" cy="-104" rx="112.89" ry="18"/>
<text text-anchor="middle" x="310" y="-99.8" font-family="Times,serif" font-size="14.00">WebhookEndpointService</text>
</g>
<!-- WebhookEndpointService&#45;&gt;ConfigurationModule -->
<g id="edge23" class="edge">
<title>WebhookEndpointService&#45;&gt;ConfigurationModule</title>
<path fill="none" stroke="black" d="M310,-122.03C310,-142.77 310,-174 310,-174 310,-174 1883.82,-174 1883.82,-174"/>
<polygon fill="black" stroke="black" points="1883.82,-177.5 1893.82,-174 1883.82,-170.5 1883.82,-177.5"/>
</g>
<!-- WebhookService -->
<g id="node25" class="node">
<title>WebhookService</title>
<ellipse fill="#fdb462" stroke="black" cx="102" cy="-104" rx="77.57" ry="18"/>
<text text-anchor="middle" x="102" y="-99.8" font-family="Times,serif" font-size="14.00">WebhookService</text>
</g>
<!-- WebhookService&#45;&gt;ConfigurationModule -->
<g id="edge24" class="edge">
<title>WebhookService&#45;&gt;ConfigurationModule</title>
<path fill="none" stroke="black" d="M102,-122.29C102,-144.21 102,-178 102,-178 102,-178 1883.72,-178 1883.72,-178"/>
<polygon fill="black" stroke="black" points="1883.72,-181.5 1893.72,-178 1883.72,-174.5 1883.72,-181.5"/>
</g>
</g>
</svg>
